<svg 
  xmlns="http://www.w3.org/2000/svg"
  viewBox="0 0 24 24"
  width="100%"
  height="100%"
  preserveAspectRatio="xMidYMid meet"
  role="img"
  aria-label="Enhanced Prior Authorization System Logo"
  fill="currentColor"
>
  <!-- Medical Cross Base -->
  <path
    d="M12 2C6.48 2 2 6.48 2 12s4.48 10 10 10 10-4.48 10-10S17.52 2 12 2zm0 18c-4.41 0-8-3.59-8-8s3.59-8 8-8 8 3.59 8 8-3.59 8-8 8z"
    opacity="0.9"
  />
  
  <!-- Shield Outline (Protection/Authorization Symbol) -->
  <path
    d="M12 3.19l7 3.11V11c0 4.52-2.98 8.69-7 9.93-4.02-1.24-7-5.41-7-9.93V6.3l7-3.11zm0 15.32V5.08L7 7.5v3.5c0 3.24 2.01 6.23 5 7.51z"
    opacity="0.95"
  />
  
  <!-- Checkmark (Approval Symbol) -->
  <path
    d="M10.5 13.59l-2.09-2.09L7 13l3.5 3.5L17 10l-1.41-1.41z"
    opacity="1"
  />
  
  <!-- Document Lines (Form/Documentation Symbol) -->
  <path
    d="M9 9h6M9 11h6"
    stroke="currentColor"
    stroke-width="1.5"
    stroke-linecap="round"
    fill="none"
    opacity="0.8"
  />
</svg>